<?xml version="1.0" encoding="utf-8"?>
<svg xmlns="http://www.w3.org/2000/svg" xmlns:xlink="http://www.w3.org/1999/xlink" style="margin: auto; background: rgb(241, 242, 243); display: block; shape-rendering: auto;" width="200px" height="200px" viewBox="0 0 100 100" preserveAspectRatio="xMidYMid">
<g transform="translate(50 50)">
<g>
<animateTransform attributeName="transform" type="rotate" values="0;51.42857142857143" keyTimes="0;1" dur="0.6097560975609756s" repeatCount="indefinite"></animateTransform><path d="M24.269322199023193 -6 L35.26932219902319 -6 L35.26932219902319 6 L24.269322199023193 6 A25 25 0 0 1 19.822663783922913 15.233581342204166 L19.822663783922913 15.233581342204166 L26.68105160436898 23.833727649352497 L17.299073814752624 31.315605271657297 L10.440685994306556 22.71545896450897 A25 25 0 0 1 0.4491352308775884 24.995965225299553 L0.4491352308775884 24.995965225299553 L-1.9985950426418693 35.720172259299616 L-13.697729988823754 33.049921051823844 L-11.249999715304297 22.32571401782378 A25 25 0 0 1 -19.262601311707623 15.935877468975459 L-19.262601311707623 15.935877468975459 L-29.173258858634235 20.7085985992686 L-34.37986372804494 9.89697218443957 L-24.469206181118324 5.124251054146429 A25 25 0 0 1 -24.469206181118324 -5.1242510541464235 L-24.469206181118324 -5.1242510541464235 L-34.37986372804494 -9.896972184439562 L-29.173258858634238 -20.70859859926859 L-19.262601311707627 -15.935877468975454 A25 25 0 0 1 -11.249999715304302 -22.325714017823778 L-11.249999715304302 -22.325714017823778 L-13.697729988823763 -33.04992105182384 L-1.9985950426418784 -35.720172259299616 L0.44913523087758234 -24.995965225299553 A25 25 0 0 1 10.44068599430655 -22.715458964508972 L10.44068599430655 -22.715458964508972 L17.299073814752617 -31.3156052716573 L26.681051604368974 -23.8337276493525 L19.82266378392291 -15.233581342204172 A25 25 0 0 1 24.26932219902319 -6.000000000000006 M0 -20A20 20 0 1 0 0 20 A20 20 0 1 0 0 -20" fill="#0a0a0a"></path></g></g>
<!-- [ldio] generated by https://loading.io/ --></svg>